<?xml version="1.0" encoding="UTF-8" standalone="no"?>
<!-- Creator: CorelDRAW -->

<svg
   xmlns:dc="http://purl.org/dc/elements/1.1/"
   xmlns:cc="http://creativecommons.org/ns#"
   xmlns:rdf="http://www.w3.org/1999/02/22-rdf-syntax-ns#"
   xmlns:svg="http://www.w3.org/2000/svg"
   xmlns="http://www.w3.org/2000/svg"
   xmlns:sodipodi="http://sodipodi.sourceforge.net/DTD/sodipodi-0.dtd"
   xmlns:inkscape="http://www.inkscape.org/namespaces/inkscape"
   xml:space="preserve"
   width="1.8552914in"
   height="0.33839059in"
   style="fill-rule:evenodd;image-rendering:optimizeQuality;shape-rendering:geometricPrecision;text-rendering:geometricPrecision"
   viewBox="0 0 1819.7326 331.90495"
   version="1.1"
   id="svg4424"
   sodipodi:docname="skyware-extra-simpified.svg"
   inkscape:version="0.92.4 (5da689c313, 2019-01-14)"><metadata
   id="metadata4428"><rdf:RDF><cc:Work
       rdf:about=""><dc:format>image/svg+xml</dc:format><dc:type
         rdf:resource="http://purl.org/dc/dcmitype/StillImage" /><dc:title></dc:title></cc:Work></rdf:RDF></metadata><sodipodi:namedview
   pagecolor="#ffffff"
   bordercolor="#666666"
   borderopacity="1"
   objecttolerance="10"
   gridtolerance="10"
   guidetolerance="10"
   inkscape:pageopacity="0"
   inkscape:pageshadow="2"
   inkscape:window-width="1920"
   inkscape:window-height="1137"
   id="namedview4426"
   showgrid="false"
   scale-x="10.21702"
   fit-margin-top="0"
   fit-margin-left="0"
   fit-margin-right="0"
   fit-margin-bottom="0"
   inkscape:zoom="4.7572232"
   inkscape:cx="58.57746"
   inkscape:cy="-36.791713"
   inkscape:window-x="-8"
   inkscape:window-y="482"
   inkscape:window-maximized="1"
   inkscape:current-layer="Layer 1" />
 <defs
   id="defs4341">
  <style
   type="text/css"
   id="style4339">
   <![CDATA[
    .str2 {stroke:#1F1A17;stroke-width:3}
    .str3 {stroke:#004E95;stroke-width:3}
    .str4 {stroke:#1F1A17;stroke-width:7}
    .str0 {stroke:#1F1A17;stroke-width:16}
    .str1 {stroke:#004E95;stroke-width:28}
    .fil1 {fill:none}
    .fil0 {fill:#1F1A17}
    .fil3 {fill:#004E95}
    .fil2 {fill:#004F95}
   ]]>
  </style>
 </defs>
 <g
   id="Layer 1"
   transform="translate(-3338.1804,-8211.5)">
  
  
  
  
  
  
  
  
  
  
  
  
  
  
  
  
  
  
  
  
  
  
  
  
  
  
  
  
  
  
  <path
   class="fil3"
   d="m 4458.0194,8218.1004 -203.6689,318.7042 h 67.8896 l 199.8973,-318.7042 z"
   id="path4403"
   inkscape:connector-curvature="0"
   style="fill:#004e95;stroke-width:1.88582361" />
  <path
   class="fil0 str2"
   d="m 3354.8126,8434.9701 h 58.4605 l -5.6575,16.9724 c -7.5432,15.0866 -7.5432,32.059 -3.7716,37.7165 5.6575,3.7716 13.2008,7.5433 28.2874,7.5433 16.9724,-1.8858 24.5157,-7.5433 35.8306,-16.9724 13.2008,-7.5433 20.7441,-18.8583 20.7441,-33.9449 0,-15.0865 -7.5433,-22.6298 -32.059,-47.1455 -3.7717,-3.7717 -13.2008,-11.315 -16.9724,-13.2008 -22.6299,-18.8582 -33.9449,-33.9448 -35.8307,-47.1456 -1.8858,-11.3149 0,-32.059 7.5433,-49.0314 7.5433,-22.6299 26.4015,-37.7165 47.1456,-52.8031 20.744,-16.9724 47.1456,-22.6299 73.5471,-22.6299 26.4015,0 52.8031,9.4292 62.2322,26.4016 9.4291,13.2007 9.4291,32.059 1.8858,58.4605 l -5.6575,15.0866 h -56.5747 l 7.5433,-18.8582 c 5.6575,-16.9725 3.7717,-24.5157 -3.7716,-32.059 -5.6575,-3.7717 -13.2008,-5.6575 -26.4016,-3.7717 -11.3149,1.8858 -20.744,3.7717 -32.059,13.2008 -13.2007,11.3149 -15.0865,20.744 -16.9724,28.2873 -3.7716,16.9724 9.4292,32.059 37.7165,56.5747 5.6575,5.6575 15.0866,13.2008 18.8582,16.9725 18.8583,15.0865 24.5158,28.2873 28.2874,39.6022 3.7716,11.315 -1.8858,32.059 -7.5433,47.1456 -9.4291,26.4016 -26.4015,43.374 -49.0314,58.4606 -20.7441,13.2007 -52.8031,20.744 -81.0904,20.744 -30.1732,0 -50.9173,-9.4291 -60.3464,-24.5157 -9.4291,-13.2007 -11.3149,-37.7164 -1.8858,-64.118 0,-1.8858 3.7716,-7.5433 3.7716,-9.4291 0,-1.8858 3.7717,-7.5433 3.7717,-7.5433 z"
   id="path4405"
   inkscape:connector-curvature="0"
   style="fill:#1f1a17;stroke:#1f1a17;stroke-width:5.6574707" />
  <path
   class="fil0 str2"
   d="m 3550.9382,8534.9188 115.0353,-316.8184 h 52.803 l -39.6022,113.1494 122.5785,-113.1494 h 67.8896 l -162.1808,154.6375 39.6023,160.295 h -56.5747 l -33.9448,-133.8934 -50.9173,135.7793 z"
   id="path4407"
   inkscape:connector-curvature="0"
   style="fill:#1f1a17;stroke:#1f1a17;stroke-width:5.6574707" />
  <path
   class="fil0 str2"
   d="m 3796.0953,8534.9188 49.0314,-133.8935 -15.0866,-181.0391 56.5747,-1.8858 7.5433,120.6927 101.8345,-118.8069 h 58.4605 l -156.5233,182.9249 -43.374,132.0077 z"
   id="path4409"
   inkscape:connector-curvature="0"
   style="fill:#1f1a17;stroke:#1f1a17;stroke-width:5.6574707" />
  <path
   class="fil0 str2"
   d="m 4367.4999,8218.1004 58.4605,1.8858 -198.0115,314.9326 h -56.5747 z"
   id="path4411"
   inkscape:connector-curvature="0"
   style="fill:#1f1a17;stroke:#1f1a17;stroke-width:5.6574707" />
  <path
   class="fil0 str2"
   d="m 3997.8784,8534.9188 37.7165,-314.9326 50.9173,-1.8858 -28.2874,243.2712 143.3226,-243.2712 50.9172,1.8858 -16.9724,132.0077 -58.4605,96.177 16.9724,-133.8935 -135.7793,220.6414 z"
   id="path4413"
   inkscape:connector-curvature="0"
   style="fill:#1f1a17;stroke:#1f1a17;stroke-width:5.6574707" />
  <path
   class="fil0 str2"
   d="m 4422.1888,8533.0329 h -67.8897 l 194.2398,-313.0467 h 60.3464 z"
   id="path4415"
   inkscape:connector-curvature="0"
   style="fill:#1f1a17;stroke:#1f1a17;stroke-width:5.6574707" />
  <path
   class="fil0 str2"
   d="m 4542.8815,8419.8835 h 30.1731 l 9.4292,-66.0038 50.9172,-84.8621 -22.6299,264.0153 -52.803,1.8859 1.8858,-69.7755 h -45.2598 z"
   id="path4417"
   inkscape:connector-curvature="0"
   style="fill:#1f1a17;stroke:#1f1a17;stroke-width:5.6574707" />
  <path
   class="fil0 str2"
   d="m 4767.2945,8350.108 h 24.5157 c 22.6299,0 30.1732,-1.8858 43.3739,-9.4291 13.2008,-9.4291 20.7441,-16.9724 26.4016,-35.8306 5.6574,-15.0866 7.5433,-22.6299 5.6574,-30.1732 -3.7716,-9.4291 -13.2007,-9.4291 -30.1732,-9.4291 h -39.6022 z m 82.9762,-132.0076 c 33.9448,0 56.5747,11.3149 66.0038,20.7441 13.2008,13.2007 11.315,39.6022 1.8859,66.0038 -9.4292,18.8582 -16.9724,37.7164 -33.9449,49.0314 -15.0865,11.3149 -13.2007,13.2008 -33.9448,18.8582 16.9724,1.8859 16.9724,9.4291 20.7441,18.8583 3.7716,9.4291 -1.8858,24.5157 -11.315,45.2597 0,3.7717 -1.8858,13.2008 -5.6574,18.8583 -1.8859,7.5433 -5.6575,13.2007 -5.6575,15.0866 -3.7717,11.3149 -5.6575,18.8582 -7.5433,28.2873 -3.7717,9.4291 -5.6575,26.4015 -5.6575,33.9448 h -54.6889 c 1.8859,-13.2007 7.5433,-41.4881 18.8583,-73.5471 3.7716,-11.3149 5.6574,-18.8582 7.5433,-24.5157 5.6574,-16.9724 5.6574,-24.5157 3.7716,-32.059 -3.7716,-5.6575 -9.4291,-7.5433 -22.6299,-5.6575 l -39.6023,1.8859 -47.1456,133.8934 h -50.9172 l 111.2636,-314.9325 z"
   id="path4419"
   inkscape:connector-curvature="0"
   style="fill:#1f1a17;stroke:#1f1a17;stroke-width:5.6574707" />
  <path
   class="fil0 str2"
   d="m 4876.6722,8533.0329 113.1495,-314.9325 h 164.0666 l -16.9724,47.1456 h -113.1494 l -28.2874,82.9762 h 109.3778 l -16.9724,47.1456 h -107.492 l -32.059,92.4054 h 107.492 l -15.0866,45.2597 z"
   id="path4421"
   inkscape:connector-curvature="0"
   style="fill:#1f1a17;stroke:#1f1a17;stroke-width:5.6574707" />
 </g>
</svg>